<svg width="239" height="54" viewBox="0 0 239 54" fill="none" xmlns="http://www.w3.org/2000/svg">
<path d="M15.66 54C14.5416 54 13.6469 53.1707 13.6076 52.11L13.4566 48.2143H9.43426C9.31205 48.2135 9.19119 48.1891 9.07863 48.1423C8.96607 48.0955 8.86402 48.0273 8.77833 47.9417C8.69265 47.856 8.62502 47.7546 8.57933 47.6431C8.53363 47.5317 8.51078 47.4125 8.51207 47.2924V46.8643C8.51207 44.3745 10.533 42.336 13.0426 42.336H13.2348L13.1289 39.5511H11.2178C6.17914 39.5511 2.33735 34.3961 4.65066 29.0829C5.74944 26.5564 8.39631 25.0251 11.1609 25.0251H12.5775L12.4735 22.2422H7.25829C2.21962 22.2422 -1.62413 17.0871 0.689187 11.7739C1.78992 9.24364 4.43679 7.71429 7.20335 7.71429H11.9261L11.775 3.85714C11.6946 1.755 13.4624 0 15.6992 0C17.9125 0 19.6823 1.755 19.6195 3.85714L19.4743 7.71429H30.4719C30.982 7.71429 31.3941 8.12507 31.3941 8.63614C31.3941 11.3805 29.1769 13.5945 26.4339 13.5945H19.2526L19.1447 16.3794H22.1781C27.2187 16.3794 31.0605 21.5344 28.7472 26.8476C27.6484 29.3741 25.0016 30.9054 22.237 30.9054H18.5953L18.4893 33.6883H20.0806C25.1193 33.6883 28.963 38.8434 26.6497 44.1566C25.5509 46.6849 22.9041 48.2143 20.1395 48.2143H17.938L17.7908 52.11C17.7516 53.1707 16.8353 54 15.7385 54H15.658H15.66ZM12.9091 33.6883L12.8032 30.9054H11.2217C10.4565 30.9054 9.82864 31.5321 9.82864 32.2959C9.82864 33.0615 10.4761 33.6883 11.2217 33.6883H12.9091V33.6883ZM12.2518 16.3794L12.1478 13.5945H7.26026C6.49504 13.5945 5.86717 14.2425 5.86717 14.9869C5.86717 15.7314 6.49504 16.3601 7.26026 16.3794H12.2518V16.3794ZM18.9249 22.2403L18.819 25.0232H22.1801C22.9453 25.0232 23.5731 24.3964 23.5731 23.6327C23.5717 23.2678 23.4252 22.918 23.1649 22.6578C22.9046 22.3977 22.5512 22.2478 22.1801 22.2403H18.9249V22.2403ZM18.2696 39.5492L18.1636 42.3341H20.0826C20.8282 42.3341 21.4757 41.7054 21.4757 40.9416C21.4742 40.5768 21.3277 40.2269 21.0674 39.9668C20.8071 39.7066 20.4537 39.5568 20.0826 39.5492H18.2696V39.5492Z" fill="#00A6ED"/>
<path d="M27.4757 11.1664C26.9263 11.1664 26.4946 10.7421 26.4946 10.2021C26.4946 9.66208 26.9459 9.23779 27.4757 9.23779C28.0054 9.23779 28.4567 9.66208 28.4567 10.2021C28.4567 10.7228 28.0054 11.1664 27.4757 11.1664Z" fill="white"/>
<path d="M63.8247 18.4856V35.9402H59.8701L53.5633 26.7697H53.461V35.9402H48.7224V18.4856H52.7451L58.9497 27.622H59.086V18.4856H63.8247ZM66.0662 35.9402V18.4856H78.6457V22.3038H70.8048V25.3038H77.998V29.122H70.8048V32.122H78.6116V35.9402H66.0662ZM85.4277 35.9402L80.2799 18.4856H85.564L87.9504 29.2243H88.0868L90.9163 18.4856H95.0754L97.9049 29.2584H98.0413L100.428 18.4856H105.712L100.564 35.9402H96.0299L93.064 26.1902H92.9277L89.9618 35.9402H85.4277ZM112.027 35.9402V18.4856H116.766V32.122H123.823V35.9402H112.027ZM141.967 27.2129C141.967 29.1561 141.59 30.7953 140.834 32.1305C140.078 33.4601 139.058 34.4686 137.774 35.1561C136.49 35.8379 135.058 36.1788 133.479 36.1788C131.888 36.1788 130.45 35.8351 129.166 35.1476C127.888 34.4544 126.871 33.443 126.115 32.1135C125.365 30.7783 124.99 29.1447 124.99 27.2129C124.99 25.2697 125.365 23.6334 126.115 22.3038C126.871 20.9686 127.888 19.9601 129.166 19.2783C130.45 18.5908 131.888 18.247 133.479 18.247C135.058 18.247 136.49 18.5908 137.774 19.2783C139.058 19.9601 140.078 20.9686 140.834 22.3038C141.59 23.6334 141.967 25.2697 141.967 27.2129ZM137.092 27.2129C137.092 26.1675 136.953 25.2868 136.675 24.5709C136.402 23.8493 135.996 23.3038 135.456 22.9345C134.922 22.5595 134.263 22.372 133.479 22.372C132.695 22.372 132.033 22.5595 131.493 22.9345C130.959 23.3038 130.553 23.8493 130.274 24.5709C130.002 25.2868 129.865 26.1675 129.865 27.2129C129.865 28.2584 130.002 29.1419 130.274 29.8635C130.553 30.5794 130.959 31.1248 131.493 31.4998C132.033 31.8692 132.695 32.0538 133.479 32.0538C134.263 32.0538 134.922 31.8692 135.456 31.4998C135.996 31.1248 136.402 30.5794 136.675 29.8635C136.953 29.1419 137.092 28.2584 137.092 27.2129ZM155.495 24.247C155.421 23.9459 155.305 23.6817 155.146 23.4544C154.987 23.2214 154.788 23.0254 154.549 22.8663C154.316 22.7015 154.043 22.5794 153.731 22.4998C153.424 22.4146 153.086 22.372 152.717 22.372C151.921 22.372 151.242 22.5623 150.68 22.943C150.123 23.3237 149.697 23.872 149.401 24.5879C149.112 25.3038 148.967 26.1675 148.967 27.1788C148.967 28.2015 149.106 29.0765 149.384 29.8038C149.663 30.5311 150.078 31.0879 150.629 31.4743C151.18 31.8606 151.864 32.0538 152.683 32.0538C153.404 32.0538 154.004 31.9487 154.481 31.7385C154.964 31.5283 155.325 31.23 155.563 30.8436C155.802 30.4572 155.921 30.0027 155.921 29.48L156.739 29.5652H152.751V26.1902H160.489V28.6106C160.489 30.2015 160.151 31.5623 159.475 32.693C158.805 33.818 157.879 34.6817 156.697 35.2839C155.521 35.8805 154.171 36.1788 152.649 36.1788C150.95 36.1788 149.458 35.818 148.174 35.0964C146.89 34.3748 145.887 33.3464 145.166 32.0112C144.45 30.676 144.092 29.0879 144.092 27.247C144.092 25.8038 144.31 24.5254 144.748 23.4118C145.191 22.2981 145.805 21.3578 146.589 20.5908C147.373 19.818 148.279 19.2356 149.308 18.8436C150.336 18.4459 151.438 18.247 152.614 18.247C153.649 18.247 154.609 18.3947 155.495 18.6902C156.387 18.98 157.174 19.3947 157.856 19.9345C158.543 20.4686 159.097 21.1021 159.518 21.8351C159.938 22.568 160.194 23.372 160.285 24.247H155.495ZM179.608 27.2129C179.608 29.1561 179.23 30.7953 178.475 32.1305C177.719 33.4601 176.699 34.4686 175.415 35.1561C174.131 35.8379 172.699 36.1788 171.119 36.1788C169.529 36.1788 168.091 35.8351 166.807 35.1476C165.529 34.4544 164.511 33.443 163.756 32.1135C163.006 30.7783 162.631 29.1447 162.631 27.2129C162.631 25.2697 163.006 23.6334 163.756 22.3038C164.511 20.9686 165.529 19.9601 166.807 19.2783C168.091 18.5908 169.529 18.247 171.119 18.247C172.699 18.247 174.131 18.5908 175.415 19.2783C176.699 19.9601 177.719 20.9686 178.475 22.3038C179.23 23.6334 179.608 25.2697 179.608 27.2129ZM174.733 27.2129C174.733 26.1675 174.594 25.2868 174.315 24.5709C174.043 23.8493 173.636 23.3038 173.097 22.9345C172.563 22.5595 171.904 22.372 171.119 22.372C170.335 22.372 169.673 22.5595 169.134 22.9345C168.6 23.3038 168.193 23.8493 167.915 24.5709C167.642 25.2868 167.506 26.1675 167.506 27.2129C167.506 28.2584 167.642 29.1419 167.915 29.8635C168.193 30.5794 168.6 31.1248 169.134 31.4998C169.673 31.8692 170.335 32.0538 171.119 32.0538C171.904 32.0538 172.563 31.8692 173.097 31.4998C173.636 31.1248 174.043 30.5794 174.315 29.8635C174.594 29.1419 174.733 28.2584 174.733 27.2129Z" fill="#00A6ED"/>
</svg>
